<?xml version="1.0" encoding="UTF-8"?>
<svg width="260px" height="16px" viewBox="0 0 260 16" version="1.1" xmlns="http://www.w3.org/2000/svg" xmlns:xlink="http://www.w3.org/1999/xlink">
    <title>navBar Copy</title>
    <defs>
        <polygon id="path-1" points="0 0 25.1612903 0 25.1612903 15.7258065 0 15.7258065"></polygon>
        <polygon id="path-3" points="0 15.7258065 260 15.7258065 260 0 0 0"></polygon>
    </defs>
    <g id="Page-1" stroke="none" stroke-width="1" fill="none" fill-rule="evenodd">
        <g id="assets" transform="translate(-798.000000, -159.000000)">
            <g id="Rossimoda-logo" transform="translate(798.000000, 159.000000)">
                <path d="M17.4695556,8.32389885 C18.4092919,8.32389885 19.1919285,7.61113361 19.1919285,6.7096689 C19.1919285,5.8079061 18.4092919,5.09484275 17.4695556,5.09484275 L4.9432358,5.09484275 L4.9432358,8.32389885 L17.4695556,8.32389885 Z M0,1.0483871 L17.4695556,1.0483871 C21.4736911,1.0483871 24.1129032,3.58524709 24.1129032,6.7096689 C24.1129032,8.91116256 22.7934562,10.8190244 20.6236351,11.7628198 L23.3973679,15.7258065 L17.6934386,15.7258065 L15.5684578,12.3709507 L4.9432358,12.3709507 L4.9432358,15.7258065 L0,15.7258065 L0,1.0483871 Z" id="Fill-1" fill="#000000"></path>
                <g id="Group-5" transform="translate(30.403226, 0.000000)">
                    <mask id="mask-2" fill="white">
                        <use xlink:href="#path-1"></use>
                    </mask>
                    <g id="Clip-4"></g>
                    <path d="M20.3357031,7.86268706 C20.3357031,5.9514661 18.9357438,4.4525056 16.8889426,4.4525056 L8.27204141,4.4525056 C6.22554651,4.4525056 4.82528092,5.9514661 4.82528092,7.86268706 C4.82528092,9.79614229 6.22554651,11.2728685 8.27204141,11.2728685 L16.8889426,11.2728685 C18.9357438,11.2728685 20.3357031,9.79614229 20.3357031,7.86268706 M25.1612903,7.86268706 C25.1612903,12.5763527 21.7145298,15.7258991 16.8889426,15.7258991 L8.27204141,15.7258991 C3.55426119,15.7258991 0,12.5763527 0,7.86268706 C0,3.17125568 3.44676049,-0.000216166533 8.27204141,-0.000216166533 L16.8889426,-0.000216166533 C21.7145298,-0.000216166533 25.1612903,3.17125568 25.1612903,7.86268706" id="Fill-3" fill="#000000" mask="url(#mask-2)"></path>
                </g>
                <mask id="mask-4" fill="white">
                    <use xlink:href="#path-3"></use>
                </mask>
                <g id="Clip-7"></g>
                <polygon id="Fill-6" fill="#000000" mask="url(#mask-4)" points="124.758065 15.7258065 130 15.7258065 130 1.0483871 124.758065 1.0483871"></polygon>
                <polygon id="Fill-8" fill="#000000" mask="url(#mask-4)" points="165.645161 1.0483871 165.645161 15.7258065 160.889999 15.7258065 160.889999 6.73053614 152.640004 12.9370491 144.19096 6.68850356 144.19096 15.7258065 139.435484 15.7258065 139.435484 1.0483871 144.19096 1.0483871 152.640004 7.14996763 160.889999 1.0483871"></polygon>
                <path d="M192.271187,7.86274882 C192.271187,5.9515654 190.871228,4.45263433 188.824427,4.45263433 L180.207525,4.45263433 C178.16103,4.45263433 176.760765,5.9515654 176.760765,7.86274882 C176.760765,9.79616609 178.16103,11.2728633 180.207525,11.2728633 L188.824427,11.2728633 C190.871228,11.2728633 192.271187,9.79616609 192.271187,7.86274882 M197.096774,7.86274882 C197.096774,12.5763219 193.650014,15.7258065 188.824427,15.7258065 L180.207525,15.7258065 C175.489745,15.7258065 171.935484,12.5763219 171.935484,7.86274882 C171.935484,3.17140957 175.382244,0 180.207525,0 L188.824427,0 C193.650014,0 197.096774,3.17140957 197.096774,7.86274882" id="Fill-9" fill="#000000" mask="url(#mask-4)"></path>
                <path d="M224.654945,8.38694773 C224.654945,6.49999148 223.154769,5.07419184 221.102887,5.07419184 L210.315296,5.07419184 L210.315296,11.7000017 L221.102887,11.7000017 C223.154769,11.65797 224.654945,10.2533353 224.654945,8.38694773 M229.596774,8.38694773 C229.596774,12.9159408 225.934626,15.7258065 221.102887,15.7258065 L205.483871,15.7258065 L205.483871,1.0483871 L221.102887,1.0483871 C225.934626,1.0483871 229.596774,3.83708783 229.596774,8.38694773" id="Fill-10" fill="#000000" mask="url(#mask-4)"></path>
                <path d="M253.484188,9.30942872 L252.365759,5.09484275 L242.430146,5.09484275 L241.311717,9.30942872 L253.484188,9.30942872 Z M254.580603,13.398215 L240.236399,13.398215 L239.612671,15.7258065 L234.83871,15.7258065 L238.817113,1.0483871 L256.021291,1.0483871 L260,15.7258065 L255.204636,15.7258065 L254.580603,13.398215 Z" id="Fill-11" fill="#000000" mask="url(#mask-4)"></path>
                <path d="M82.2016515,5.89717742 L70.8628647,5.89717742 C70.3309649,5.89717742 69.8999691,5.45724422 69.8999691,4.91431452 L69.8999691,4.91431452 C69.8999691,4.37138482 70.3309649,3.93145161 70.8628647,3.93145161 L86.2621172,3.93145161 L86.2621172,0 L70.8628647,0 C68.203981,0 66.0483871,2.20029405 66.0483871,4.91431452 L66.0483871,4.91431452 C66.0483871,7.62833499 68.203981,9.82862903 70.8628647,9.82862903 L82.2016515,9.82862903 C82.7335513,9.82862903 83.164547,10.2688762 83.164547,10.8114919 L83.164547,10.8114919 C83.164547,11.3544216 82.7335513,11.7943548 82.2016515,11.7943548 L66.6282778,11.7943548 L66.6282778,15.7258065 L82.2016515,15.7258065 C84.8605352,15.7258065 87.016129,13.5255124 87.016129,10.8114919 L87.016129,10.8114919 C87.016129,8.09747147 84.8605352,5.89717742 82.2016515,5.89717742" id="Fill-12" fill="#000000" mask="url(#mask-4)"></path>
                <path d="M111.55649,5.89717742 L100.217703,5.89717742 C99.6858036,5.89717742 99.2548079,5.45724422 99.2548079,4.91431452 L99.2548079,4.91431452 C99.2548079,4.37138482 99.6858036,3.93145161 100.217703,3.93145161 L115.616956,3.93145161 L115.616956,0 L100.217703,0 C97.5588197,0 95.4032258,2.20029405 95.4032258,4.91431452 L95.4032258,4.91431452 C95.4032258,7.62833499 97.5588197,9.82862903 100.217703,9.82862903 L111.55649,9.82862903 C112.08839,9.82862903 112.519386,10.2688762 112.519386,10.8114919 L112.519386,10.8114919 C112.519386,11.3544216 112.08839,11.7943548 111.55649,11.7943548 L95.9831166,11.7943548 L95.9831166,15.7258065 L111.55649,15.7258065 C114.215374,15.7258065 116.370968,13.5255124 116.370968,10.8114919 L116.370968,10.8114919 C116.370968,8.09747147 114.215374,5.89717742 111.55649,5.89717742" id="Fill-13" fill="#000000" mask="url(#mask-4)"></path>
            </g>
        </g>
    </g>
</svg>